<svg width="370" height="314" viewBox="0 0 370 314" fill="none" xmlns="http://www.w3.org/2000/svg">
<path d="M176.772 0.111476C177.127 0.0411644 177.488 0 177.85 0H178.16C182.597 0.537917 187.8 0.568213 192.036 1.42365C213.304 5.7191 229.208 18.9398 241.912 35.7651C252.528 49.8243 262.227 63.3873 272.253 77.4414L304.277 121.662L331.48 159.156C346.419 179.717 362.203 199.417 367.753 224.682C368.242 226.897 368.947 233.583 369.608 236.531C369.798 237.38 370 238.25 370 239.12V248.157C370 249.054 369.74 249.937 369.547 250.813C369.159 252.579 369.157 255.16 368.847 256.662C368.383 258.928 367.933 261.105 367.378 263.366C363.495 279.735 353.262 293.882 338.939 302.684C328.225 309.169 315.771 312.593 303.432 313.661C275.293 316.356 249.724 302.431 224.994 291.072C208.42 283.457 193.581 278.299 175.032 280.446C161.589 282 148.651 287.834 136.499 293.6C110.801 305.794 85.9416 316.297 56.9824 309.105C50.6683 307.484 44.5566 305.16 38.7626 302.171C17.9249 291.515 7.20299 275.372 1.92503 253.074C1.50321 251.292 1.18955 247.007 0.561624 244.568C0.307439 243.581 0 242.57 0 241.551V232.344C0 231.162 0.314228 229.939 0.527737 228.776C1.04426 225.963 1.40173 220.738 1.69877 219.199C7.121 191.111 25.8354 167.436 41.7507 144.379C53.5497 127.074 65.498 109.871 77.5949 92.7731L103.896 54.5114C113.355 40.7769 122.724 25.2509 136.043 14.788C144.87 7.85368 155.183 3.32668 166.231 1.39229C169.635 0.796452 173.298 0.798666 176.772 0.111476ZM216.351 221.014C229.294 203.799 241.145 188.086 252.049 169.216C265.048 146.72 271.229 123.653 247.914 105.241C240.327 99.2487 230.256 96.7714 220.721 98.1595C206.014 100.309 197.068 109.336 181.92 109.672C164.814 110.051 151.745 95.5442 135.302 97.794C125.009 98.1922 117.031 103 110.189 110.432C104.638 116.463 100.076 126.445 100.402 134.765C101.285 157.321 125.688 189.328 139.001 207.243C147.173 218.24 155.134 229.651 165.329 238.912C170.138 243.281 177.338 246.995 183.975 246.695C192.021 246.33 199.35 241.256 204.582 235.43C208.677 230.87 212.769 225.984 216.351 221.014Z" fill="url(#paint0_linear_47_5)"/>
<defs>
<linearGradient id="paint0_linear_47_5" x1="0" y1="0" x2="309.819" y2="365.073" gradientUnits="userSpaceOnUse">
<stop stop-color="#F6339A"/>
<stop offset="1" stop-color="#FF2056"/>
</linearGradient>
</defs>
</svg>
